<svg width="18" height="16" viewBox="0 0 18 16" fill="none" xmlns="http://www.w3.org/2000/svg">
<path d="M0 5.35817C0 2.39895 2.3427 0 5.23256 0C6.71251 0 8.04884 0.629586 9 1.63978C9.95116 0.629586 11.2875 0 12.7674 0C15.6573 0 18 2.39895 18 5.35817C18 7.96274 16.4543 10.4222 14.7311 12.2043C12.9489 14.0472 10.7741 15.4309 9.19801 15.9672C9.06946 16.0109 8.93054 16.0109 8.80198 15.9672C7.22588 15.4309 5.05106 14.0472 3.26894 12.2043C1.49293 10.3677 0 7.96274 0 5.35817Z" fill="#1C1B1F"/>
<path d="M0 5.35817C0 2.39895 2.3427 0 5.23256 0C6.71251 0 8.04884 0.629586 9 1.63978C9.95116 0.629586 11.2875 0 12.7674 0C15.6573 0 18 2.39895 18 5.35817C18 7.96274 16.4543 10.4222 14.7311 12.2043C12.9489 14.0472 10.7741 15.4309 9.19801 15.9672C9.06946 16.0109 8.93054 16.0109 8.80198 15.9672C7.22588 15.4309 5.05106 14.0472 3.26894 12.2043C1.49293 10.3677 0 7.96274 0 5.35817Z" fill="url(#paint0_linear_1_556)"/>
<defs>
<linearGradient id="paint0_linear_1_556" x1="0" y1="0" x2="18.321" y2="0.37639" gradientUnits="userSpaceOnUse">
<stop stop-color="#FC8801"/>
<stop offset="1" stop-color="#FC3D01"/>
</linearGradient>
</defs>
</svg>
