<svg width="25" height="24" viewBox="0 0 25 24" fill="none" xmlns="http://www.w3.org/2000/svg">
<g opacity="0.4">
<path d="M1.44019 10.5C1.44019 5.39139 5.62725 1.25 10.7922 1.25C15.9572 1.25 20.1442 5.39139 20.1442 10.5C20.1442 15.6086 15.9572 19.75 10.7922 19.75C5.62725 19.75 1.44019 15.6086 1.44019 10.5ZM10.7922 2.75C6.46481 2.75 2.95673 6.21981 2.95673 10.5C2.95673 14.7802 6.46481 18.25 10.7922 18.25C15.1196 18.25 18.6277 14.7802 18.6277 10.5C18.6277 6.21981 15.1196 2.75 10.7922 2.75Z" fill="black"/>
<path d="M16.4343 16.0806C16.7305 15.7877 17.2106 15.7877 17.5067 16.0806L21.7961 20.3232C22.0923 20.6161 22.0923 21.091 21.7961 21.3839C21.5 21.6768 21.0199 21.6768 20.7238 21.3839L16.4343 17.1412C16.1382 16.8483 16.1382 16.3735 16.4343 16.0806Z" fill="black"/>
</g>
</svg>
