<svg width="20" height="21" viewBox="0 0 20 21" fill="none" xmlns="http://www.w3.org/2000/svg">
<g opacity="0.4">
<path fill-rule="evenodd" clip-rule="evenodd" d="M9.57 1.5C8.43401 1.5 7.42221 2.02972 6.76713 2.85863C6.58195 3.09294 6.27541 3.19506 5.98672 3.11861C5.69502 3.04137 5.38793 3 5.07 3C3.09835 3 1.5 4.59836 1.5 6.57C1.5 8.30913 2.74432 9.75926 4.39152 10.0758C4.74471 10.1436 5 10.4527 5 10.8123V18.75C5 18.8881 5.11191 19 5.25 19H14.25C14.3881 19 14.5 18.8881 14.5 18.75V10.8123C14.5 10.4527 14.7553 10.1436 15.1085 10.0758C16.7557 9.75926 18 8.30913 18 6.57C18 4.59836 16.4016 3 14.43 3C14.0235 3 13.6345 3.06763 13.2725 3.19163C12.9648 3.29704 12.6242 3.19211 12.4292 2.93183C11.7768 2.06109 10.739 1.5 9.57 1.5ZM5.90353 1.56831C6.82592 0.602911 8.12771 0 9.57 0C11.0419 0 12.3674 0.627881 13.2928 1.62821C13.6589 1.54425 14.0396 1.5 14.43 1.5C17.2301 1.5 19.5 3.76994 19.5 6.57C19.5 8.82259 18.0316 10.7309 16 11.392V18.75C16 19.7165 15.2165 20.5 14.25 20.5H5.25C4.28349 20.5 3.5 19.7165 3.5 18.75V11.392C1.46841 10.7309 0 8.82259 0 6.57C0 3.76994 2.26991 1.5 5.07 1.5C5.3535 1.5 5.63199 1.52334 5.90353 1.56831Z" fill="black"/>
<path fill-rule="evenodd" clip-rule="evenodd" d="M3.5 14.25C3.5 13.8358 3.83579 13.5 4.25 13.5H15.25C15.6642 13.5 16 13.8358 16 14.25C16 14.6642 15.6642 15 15.25 15H4.25C3.83579 15 3.5 14.6642 3.5 14.25Z" fill="black"/>
<path fill-rule="evenodd" clip-rule="evenodd" d="M7.75 10.5C8.16421 10.5 8.5 10.8358 8.5 11.25V14.25C8.5 14.6642 8.16421 15 7.75 15C7.33579 15 7 14.6642 7 14.25V11.25C7 10.8358 7.33579 10.5 7.75 10.5Z" fill="black"/>
<path fill-rule="evenodd" clip-rule="evenodd" d="M15.25 12C15.6642 12 16 12.3358 16 12.75V15.75C16 16.1642 15.6642 16.5 15.25 16.5C14.8358 16.5 14.5 16.1642 14.5 15.75V12.75C14.5 12.3358 14.8358 12 15.25 12Z" fill="black"/>
<path fill-rule="evenodd" clip-rule="evenodd" d="M4.25 12C4.66421 12 5 12.3358 5 12.75V15.75C5 16.1642 4.66421 16.5 4.25 16.5C3.83579 16.5 3.5 16.1642 3.5 15.75V12.75C3.5 12.3358 3.83579 12 4.25 12Z" fill="black"/>
</g>
</svg>
