<svg width="20" height="21" viewBox="0 0 20 21" fill="none" xmlns="http://www.w3.org/2000/svg">
<path fill-rule="evenodd" clip-rule="evenodd" d="M7.25 13.5H5.25V15H8H14.75V13.5H8.75V11.25C8.75 10.8358 8.41421 10.5 8 10.5C7.58579 10.5 7.25 10.8358 7.25 11.25V13.5ZM3.75 15.75V12.75V11.392C1.71841 10.7309 0.25 8.82259 0.25 6.57C0.25 3.76994 2.51991 1.5 5.32 1.5C5.6035 1.5 5.88199 1.52334 6.15353 1.56831C7.07592 0.602911 8.37771 0 9.82 0C11.2919 0 12.6174 0.627881 13.5428 1.62821C13.9089 1.54425 14.2896 1.5 14.68 1.5C17.4801 1.5 19.75 3.76994 19.75 6.57C19.75 8.82259 18.2816 10.7309 16.25 11.392V12.75V15.75V18.75C16.25 19.7165 15.4665 20.5 14.5 20.5H5.5C4.53349 20.5 3.75 19.7165 3.75 18.75V15.75Z" fill="#1C1B1F"/>
<path fill-rule="evenodd" clip-rule="evenodd" d="M7.25 13.5H5.25V15H8H14.75V13.5H8.75V11.25C8.75 10.8358 8.41421 10.5 8 10.5C7.58579 10.5 7.25 10.8358 7.25 11.25V13.5ZM3.75 15.75V12.75V11.392C1.71841 10.7309 0.25 8.82259 0.25 6.57C0.25 3.76994 2.51991 1.5 5.32 1.5C5.6035 1.5 5.88199 1.52334 6.15353 1.56831C7.07592 0.602911 8.37771 0 9.82 0C11.2919 0 12.6174 0.627881 13.5428 1.62821C13.9089 1.54425 14.2896 1.5 14.68 1.5C17.4801 1.5 19.75 3.76994 19.75 6.57C19.75 8.82259 18.2816 10.7309 16.25 11.392V12.75V15.75V18.75C16.25 19.7165 15.4665 20.5 14.5 20.5H5.5C4.53349 20.5 3.75 19.7165 3.75 18.75V15.75Z" fill="url(#paint0_linear_47_276)"/>
<defs>
<linearGradient id="paint0_linear_47_276" x1="0.25" y1="0" x2="20.1001" y2="0.34481" gradientUnits="userSpaceOnUse">
<stop stop-color="#FC8801"/>
<stop offset="1" stop-color="#FC3D01"/>
</linearGradient>
</defs>
</svg>
