<svg width="22" height="22" viewBox="0 0 22 22" fill="none" xmlns="http://www.w3.org/2000/svg">
<path fill-rule="evenodd" clip-rule="evenodd" d="M0.894834 6.44972C2.553 2.6546 6.34064 0 10.75 0C15.1594 0 18.947 2.65459 20.6052 6.44972C20.771 6.82929 20.5977 7.27143 20.2182 7.43727C19.8386 7.6031 19.3965 7.42984 19.2306 7.05028C17.8026 3.78179 14.5419 1.5 10.75 1.5C6.95807 1.5 3.69743 3.78178 2.26936 7.05028C2.10352 7.42984 1.66139 7.6031 1.28182 7.43726C0.902254 7.27143 0.728995 6.82929 0.894834 6.44972ZM11.275 5.21442C10.9834 4.92853 10.5166 4.92853 10.225 5.21442C8.42809 6.97592 7.24612 9.36539 7.03425 12.0273C5.26701 10.752 3.09585 10 0.75 10C0.335786 10 0 10.3358 0 10.75C0 16.6871 4.81294 21.5 10.75 21.5C16.6871 21.5 21.5 16.6871 21.5 10.75C21.5 10.3358 21.1642 10 20.75 10C18.4042 10 16.233 10.752 14.4657 12.0273C14.2539 9.36539 13.0719 6.97592 11.275 5.21442Z" fill="url(#paint0_linear_47_576)"/>
<defs>
<linearGradient id="paint0_linear_47_576" x1="0" y1="0" x2="21.8853" y2="0.399659" gradientUnits="userSpaceOnUse">
<stop stop-color="#FC8801"/>
<stop offset="1" stop-color="#FC3D01"/>
</linearGradient>
</defs>
</svg>
