<svg width="20" height="21" viewBox="0 0 20 21" fill="none" xmlns="http://www.w3.org/2000/svg">
<path fill-rule="evenodd" clip-rule="evenodd" d="M7.99994 0C7.58573 0 7.24994 0.335786 7.24994 0.75V5.5H3.99999C3.69665 5.5 3.42317 5.68274 3.30708 5.96299C3.191 6.24325 3.25516 6.56583 3.46966 6.78033L9.46961 12.7803C9.61026 12.921 9.80103 13 9.99994 13C10.1989 13 10.3896 12.921 10.5303 12.7803L16.5303 6.78033C16.7448 6.56584 16.8089 6.24325 16.6929 5.96299C16.5768 5.68274 16.3033 5.5 15.9999 5.5H12.7499V0.75C12.7499 0.335786 12.4142 0 11.9999 0H7.99994ZM0.25 16.25C0.25 15.8358 0.585786 15.5 1 15.5H19C19.4142 15.5 19.75 15.8358 19.75 16.25C19.75 16.6642 19.4142 17 19 17H1C0.585786 17 0.25 16.6642 0.25 16.25ZM5 19C4.58579 19 4.25 19.3358 4.25 19.75C4.25 20.1642 4.58579 20.5 5 20.5H15C15.4142 20.5 15.75 20.1642 15.75 19.75C15.75 19.3358 15.4142 19 15 19H5Z" fill="url(#paint0_linear_47_361)"/>
<defs>
<linearGradient id="paint0_linear_47_361" x1="0.25" y1="0" x2="20.1001" y2="0.34481" gradientUnits="userSpaceOnUse">
<stop stop-color="#FC8801"/>
<stop offset="1" stop-color="#FC3D01"/>
</linearGradient>
</defs>
</svg>
