<svg width="22" height="20" viewBox="0 0 22 20" fill="none" xmlns="http://www.w3.org/2000/svg">
<path fill-rule="evenodd" clip-rule="evenodd" d="M12.75 0C13.1642 0 13.5 0.335786 13.5 0.75V3.75C13.5 4.16421 13.1642 4.5 12.75 4.5C12.3358 4.5 12 4.16421 12 3.75V0.75C12 0.335786 12.3358 0 12.75 0ZM8.5 1.75C8.5 1.33579 8.16421 1 7.75 1C7.33579 1 7 1.33579 7 1.75V3.75C7 4.16421 7.33579 4.5 7.75 4.5C8.16421 4.5 8.5 4.16421 8.5 3.75V1.75ZM0 7.75C0 7.33579 0.335786 7 0.75 7H5.75H19.75H20.75C21.1642 7 21.5 7.33579 21.5 7.75C21.5 8.16421 21.1642 8.5 20.75 8.5H20.5V15.75C20.5 17.8211 18.8211 19.5 16.75 19.5H8.75C6.67894 19.5 5 17.8211 5 15.75V8.5H0.75C0.335786 8.5 0 8.16421 0 7.75ZM18.5 1.75C18.5 1.33579 18.1642 1 17.75 1C17.3358 1 17 1.33579 17 1.75V3.75C17 4.16421 17.3358 4.5 17.75 4.5C18.1642 4.5 18.5 4.16421 18.5 3.75V1.75Z" fill="url(#paint0_linear_47_497)"/>
<defs>
<linearGradient id="paint0_linear_47_497" x1="0" y1="0" x2="21.8838" y2="0.440618" gradientUnits="userSpaceOnUse">
<stop stop-color="#FC8801"/>
<stop offset="1" stop-color="#FC3D01"/>
</linearGradient>
</defs>
</svg>
